<svg height="512" viewBox="0 0 60 60" width="512" xmlns="http://www.w3.org/2000/svg"><g id="Page-1" fill="none" fill-rule="evenodd"><g id="040---Street-Bar" fill-rule="nonzero"><path id="Shape" d="m58.0000228 12-.0000228 3.83c.0048152 1.4688298-.7521566 2.8351639-2 3.61-.4897143.2977411-1.0397951.4822402-1.61.54-1.1240965.1142134-2.2438668-.2538838-3.0809477-1.0127863-.837081-.7589025-1.312856-1.8373362-1.3090523-2.9672137l-.0000226-4z" fill="#bb193b"/><path id="Shape" d="m58 12h-8l-5-11.00000002 4.9.00000002c.6854845-.00010141 1.3232658.35086704 1.69.93z" fill="#ef314c"/><path id="Shape" d="m51.59 1.93c-.3667342-.57913296-1.0045155-.93010141-1.69-.93l-3-.00000002c.6854845-.00010139 1.3232658.35086706 1.69.93000002l6.41 10.07h3z" fill="#bb193b"/><path id="Shape" d="m50 12h-8l-3-11h6z" fill="#ff9801"/><path id="Shape" d="m50 12v4c0 2.209139-1.790861 4-4 4s-4-1.790861-4-4v-4z" fill="#f57c00"/><path id="Shape" d="m42 12h-8l-2-11h7z" fill="#ef314c"/><path id="Shape" d="m34 12h-8l2-11h4z" fill="#ff9801"/><path id="Shape" d="m34 12v4c0 2.209139-1.790861 4-4 4s-4-1.790861-4-4v-4z" fill="#f57c00"/><path id="Shape" d="m28 1-2 11h-8l3-11z" fill="#ef314c"/><path id="Shape" d="m21 1-3 11h-8l5-11z" fill="#ff9801"/><path id="Shape" d="m10.0000226 12-.0000226 4c.0038037 1.1298775-.47197134 2.2083112-1.30905227 2.9672137s-1.95685128 1.1269997-3.08094773 1.0127863c-.57020494-.0577598-1.12028566-.2422589-1.61-.54-1.24784345-.7748361-2.00481523-2.1411702-2-3.61l-.00002284-3.83z" fill="#bb193b"/><path id="Shape" d="m15 .99999998-5 11.00000002h-8l6.41-10.07c.36673418-.57913296 1.00451554-.93010141 1.69-.93z" fill="#ef314c"/><path id="Shape" d="m18 12v4c0 2.209139-1.790861 4-4 4s-4-1.790861-4-4v-4z" fill="#f57c00"/><path id="Shape" d="m42 12v4c0 2.209139-1.790861 4-4 4s-4-1.790861-4-4v-4z" fill="#bb193b"/><path id="Shape" d="m26 12v4c0 2.209139-1.790861 4-4 4s-4-1.790861-4-4v-4z" fill="#bb193b"/><path id="Shape" d="m59 36c-.0081672 1.1011688-.8988312 1.9918328-2 2h-54c-1.10320187-.0032948-1.9967052-.8967981-2-2-.00282307-.5305905.2101411-1.0395388.59-1.41.3704612-.3798589.87940947-.5928231 1.41-.59h54c1.1032019.0032948 1.9967052.8967981 2 2z" fill="#9e9e9e"/><path id="Shape" d="m57 34h-3c1.1032019.0032948 1.9967052.8967981 2 2-.0081672 1.1011688-.8988312 1.9918328-2 2h3c1.1011688-.0081672 1.9918328-.8988312 2-2-.0032948-1.1032019-.8967981-1.9967052-2-2z" fill="#707070"/><path id="Shape" d="m57 38v20c0 .5522847-.4477153 1-1 1h-52c-.55228475 0-1-.4477153-1-1v-20z" fill="#00bcd4"/><path id="Shape" d="m54 38v20c0 .5522847-.4477153 1-1 1h3c.5522847 0 1-.4477153 1-1v-20z" fill="#00838f"/><path id="Shape" d="m8 19.47v14.53h-4v-14.56c.48971434.2977411 1.03979506.4822402 1.61.54.83028786.0821384 1.66556135-.0960999 2.39-.51z" fill="#783e22"/><path id="Shape" d="m56 19.44v14.56h-4v-14.53c.7244386.4139001 1.5597121.5921384 2.39.51.5702049-.0577598 1.1202857-.2422589 1.61-.54z" fill="#783e22"/><g fill="#a0522d"><path id="Shape" d="m15 28c1.1045695 0 2 .8954305 2 2v4h-4v-4c0-1.1045695.8954305-2 2-2z"/><path id="Shape" d="m25 28c1.1045695 0 2 .8954305 2 2v4h-4v-4c0-1.1045695.8954305-2 2-2z"/><path id="Shape" d="m35 28c1.1045695 0 2 .8954305 2 2v4h-4v-4c0-1.1045695.8954305-2 2-2z"/><path id="Shape" d="m45 28c1.1045695 0 2 .8954305 2 2v4h-4v-4c0-1.1045695.8954305-2 2-2z"/></g><path id="Shape" d="m10 42h8c1.1045695 0 2 .8954305 2 2v1c0 .5522847-.4477153 1-1 1h-10c-.55228475 0-1-.4477153-1-1v-1c0-1.1045695.8954305-2 2-2z" fill="#37474f"/><path id="Shape" d="m10 46c0 2.209139 1.790861 4 4 4s4-1.790861 4-4" fill="#607d8b"/><path id="Shape" d="m10 59c0-2.209139 1.790861-4 4-4s4 1.790861 4 4z" fill="#9e9e9e"/><path id="Shape" d="m26 42h8c1.1045695 0 2 .8954305 2 2v1c0 .5522847-.4477153 1-1 1h-10c-.5522847 0-1-.4477153-1-1v-1c0-1.1045695.8954305-2 2-2z" fill="#37474f"/><path id="Shape" d="m26 46c0 2.209139 1.790861 4 4 4s4-1.790861 4-4" fill="#607d8b"/><path id="Shape" d="m26 59c0-2.209139 1.790861-4 4-4s4 1.790861 4 4z" fill="#9e9e9e"/><path id="Shape" d="m42 42h8c1.1045695 0 2 .8954305 2 2v1c0 .5522847-.4477153 1-1 1h-10c-.5522847 0-1-.4477153-1-1v-1c0-1.1045695.8954305-2 2-2z" fill="#37474f"/><path id="Shape" d="m42 46c0 2.209139 1.790861 4 4 4s4-1.790861 4-4" fill="#607d8b"/><path id="Shape" d="m42 59c0-2.209139 1.790861-4 4-4s4 1.790861 4 4z" fill="#9e9e9e"/><path id="Shape" d="m57 33v-13.043c1.2626883-.9983248 1.9994315-2.5193311 2-4.129v-3.828c-.0117207-.1883212-.0649959-.3717108-.156-.537l-6.41-10.073c-.5494968-.86819684-1.5065262-1.39316561-2.534-1.39h-39.8c-1.02747381-.00316561-1.98450322.52180316-2.534 1.39l-6.41 10.073c-.09220982.1647869-.14556645.3484569-.156.537v3.828c.00056847 1.6096689.73731168 3.1306752 2 4.129v13.043c-1.45943726-.0027654-2.70808095 1.0474881-2.95538732 2.485822-.24730638 1.4383339.57883984 2.8453257 1.95538732 3.330178v19.184c0 1.1045695.8954305 2 2 2h52c1.1045695 0 2-.8954305 2-2v-19.184c1.3765475-.4848523 2.2026937-1.8918441 1.9553873-3.330178s-1.49595-2.4885874-2.9553873-2.485822zm-2 0h-2v-12.13c.4875518.1096583.988771.1457245 1.487.107.1727702-.0235046.3440511-.0568926.513-.1zm-7 0v-3c0-1.6568542-1.3431458-3-3-3s-3 1.3431458-3 3v3h-4v-3c0-1.6568542-1.3431458-3-3-3s-3 1.3431458-3 3v3h-4v-3c0-1.6568542-1.3431458-2.9999999-3-2.9999999s-3 1.3431457-3 2.9999999v3h-4v-3c0-1.6568542-1.3431458-3-3-3s-3 1.3431458-3 3v3h-3v-13.034c.39239976-.2546373.73194671-.5826396 1-.966.9442719 1.2590292 2.4262135 2 4 2s3.0557281-.7409708 4-2c.9442719 1.2590292 2.4262135 2 4 2s3.0557281-.7409708 4-2c.9442719 1.2590292 2.4262135 2 4 2s3.0557281-.7409708 4-2c.9442719 1.2590292 2.4262135 2 4 2s3.0557281-.7409708 4-2c.9442719 1.2590292 2.4262135 2 4 2s3.0557281-.7409708 4-2c.2662184.3854702.6060783.7144546 1 .968v13.032zm-2 0h-2v-3c0-.5522847.4477153-1 1-1s1 .4477153 1 1zm-10 0h-2v-3c0-.5522847.4477153-1 1-1s1 .4477153 1 1zm-10 0h-2v-3c0-.5522847.4477153-1 1-1s1 .4477153 1 1zm-10 0h-2v-3c0-.5522847.4477153-1 1-1s1 .4477153 1 1zm-13-17.172v-2.828h6v3c-.00103875.8453596-.35739926 1.6513441-.982 2.221-.62735055.5739283-1.47029389.8519977-2.316.764-1.57306968-.2109406-2.73644767-1.5702242-2.702-3.157zm16.691-13.828-2.455 9h-5.683l4.091-9zm7.109 0-1.636 9h-5.855l2.455-9zm11.436 0 2.455 9h-5.857l-1.634-9zm6.12 0 4.091 9h-5.683l-2.455-9zm4.644 14c0 1.6568542-1.3431458 3-3 3s-3-1.3431458-3-3v-3h6zm-30-3h6v3c0 1.6568542-1.3431458 2.9999999-3 2.9999999s-3-1.3431457-3-2.9999999zm8 0h6v3c0 1.6568542-1.3431458 3-3 3s-3-1.3431458-3-3zm8 0h6v3c0 1.6568542-1.3431458 3-3 3s-3-1.3431458-3-3zm-2.2-2h-5.6l1.636-9h2.332zm-15.8 2v3c0 1.6568542-1.3431458 2.9999999-3 2.9999999s-3-1.3431457-3-2.9999999v-3zm37.3 5.985c-.8457061.0879977-1.6886494-.1900717-2.316-.764-.6253408-.569301-.9824483-1.3753332-.984-2.221v-3h6v2.828c.0345697 1.5861069-1.1277269 2.945133-2.7 3.157zm-3.554-16.522 5.432 8.537h-5.534l-4.091-9.00000293 3.347.00000293c.3427065-.00082795.6619671.17389737.846.463zm-41.492 0c.18403295-.28910263.50329347-.46382795.846-.463l3.349-.00000293-4.093 9.00000293h-5.534zm-4.254 18.412c.16894895.0431074.34022985.0764954.513.1.49812926.0393802.99934733.0039882 1.487-.105v12.13h-2zm6.171 37.125c.4233058-1.1994774 1.5570197-2.0016218 2.829-2.0016218s2.4056942.8021444 2.829 2.0016218zm-2.171-13v-1c0-.5522847.44771525-1 1-1h8c.5522847 0 1 .4477153 1 1v1zm7.816 2c-.4174114 1.1981296-1.5472421 2.0009455-2.816 2.0009455s-2.3985886-.8028159-2.816-2.0009455zm10.355 11c.4233058-1.1994774 1.5570197-2.0016218 2.829-2.0016218s2.4056942.8021444 2.829 2.0016218zm-2.171-13v-1c0-.5522847.4477153-1 1-1h8c.5522847 0 1 .4477153 1 1v1zm7.816 2c-.4174114 1.1981296-1.5472421 2.0009455-2.816 2.0009455s-2.3985886-.8028159-2.816-2.0009455zm10.355 11c.4233058-1.1994774 1.5570197-2.0016218 2.829-2.0016218s2.4056942.8021444 2.829 2.0016218zm-2.171-13v-1c0-.5522847.4477153-1 1-1h8c.5522847 0 1 .4477153 1 1v1zm7.816 2c-.4174114 1.1981296-1.5472421 2.0009455-2.816 2.0009455s-2.3985886-.8028159-2.816-2.0009455zm2.084 11c-.404488-1.9621984-1.9378016-3.495512-3.9-3.9v-3.2c1.9621984-.404488 3.495512-1.9378016 3.9-3.9h.1c1.1045695 0 2-.8954305 2-2v-1c0-1.6568542-1.3431458-3-3-3h-8c-1.6568542 0-3 1.3431458-3 3v1c0 1.1045695.8954305 2 2 2h.1c.404488 1.9621984 1.9378016 3.495512 3.9 3.9v3.2c-1.9621984.404488-3.495512 1.9378016-3.9 3.9h-6.2c-.404488-1.9621984-1.9378016-3.495512-3.9-3.9v-3.2c1.9621984-.404488 3.495512-1.9378016 3.9-3.9h.1c1.1045695 0 2-.8954305 2-2v-1c0-1.6568542-1.3431458-3-3-3h-8c-1.6568542 0-3 1.3431458-3 3v1c0 1.1045695.8954305 2 2 2h.1c.404488 1.9621984 1.9378016 3.495512 3.9 3.9v3.2c-1.9621984.404488-3.495512 1.9378016-3.9 3.9h-6.2c-.404488-1.9621984-1.9378016-3.495512-3.9-3.9v-3.2c1.9621984-.404488 3.495512-1.9378016 3.9-3.9h.1c1.1045695 0 2-.8954305 2-2v-1c0-1.6568542-1.3431458-3-3-3h-8c-1.65685425 0-3 1.3431458-3 3v1c0 1.1045695.8954305 2 2 2h.1c.40448795 1.9621984 1.9378016 3.495512 3.9 3.9v3.2c-1.9621984.404488-3.49551205 1.9378016-3.9 3.9h-5.1v-19h52v19zm6.1-21h-54c-.55228475 0-1-.4477153-1-1s.44771525-1 1-1h54c.5522847 0 1 .4477153 1 1s-.4477153 1-1 1z" fill="#000"/></g></g></svg>